<svg width="154" height="23" viewBox="0 0 154 23" fill="none" xmlns="http://www.w3.org/2000/svg">
<g clip-path="url(#clip0_1226_559)">
<path d="M69.6982 22.4641H73.4789V19.2818H83.6927V22.4343H87.4428V16.1887H85.4611V3.75692H73.1435L72.8691 11.0732C72.8081 12.9767 72.4118 14.5232 71.4056 16.1887H69.6982V22.4641ZM76.4363 11.3706L76.5888 6.84999H81.6804V16.159H75.2472C76.0095 14.7909 76.3753 13.0956 76.4363 11.3706ZM97.2908 3.75692H89.5771V19.3115H93.3272V13.631H97.2908C100.767 13.631 102.901 11.9655 102.901 8.6642C102.901 5.3332 100.858 3.75692 97.2908 3.75692ZM93.3272 10.5379V6.82025H97.1993C98.4494 6.82025 99.1811 7.50429 99.1811 8.6642C99.1811 9.8241 98.4494 10.5676 97.1993 10.5676H93.3272V10.5379ZM140.006 3.75692V19.3115H148.268C151.317 19.3115 154 18.3003 154 14.9693C154 13.3038 153.177 12.1439 151.866 11.4896C152.994 10.8056 153.634 9.64565 153.634 8.12886C153.634 4.79786 151.012 3.78666 147.933 3.78666H140.006V3.75692ZM143.726 10.0323V6.76077H147.994C149.336 6.76077 149.976 7.32585 149.976 8.42627C149.976 9.58617 149.336 10.062 147.994 10.062H143.726V10.0323ZM143.726 16.2779V13.0064H148.329C149.61 13.0064 150.25 13.5417 150.25 14.6422C150.25 15.7426 149.64 16.3077 148.329 16.3077H143.726V16.2779ZM121.286 0.187988L121.316 2.86469L134.823 1.58582V0.187988H121.286ZM107.657 3.75692L102.504 19.3115H106.59L107.322 16.8133H112.383L113.176 19.3115H117.322L112.139 3.75692H107.657ZM111.468 13.7202H108.114L109.761 7.26637H109.852L111.468 13.7202ZM123.176 3.75692H119.243V19.3115H123.572L132.841 8.48575H132.932L132.871 19.3115H136.805V3.75692H132.475L123.206 14.5827H123.115L123.176 3.75692Z" fill="#32D264"/>
<path d="M40.1845 6.82013V19.3114H43.8737V6.82013H48.1422V3.7568H35.9161V6.82013H40.1845ZM24.5437 3.7568H21.0069V19.3114H25.1534L30.428 8.78304H30.5195L30.2756 19.3114H33.8428V3.7568H29.6658L24.3912 14.2554H24.2997L24.5437 3.7568ZM54.118 3.7568H50.1849V19.3114H54.5144L63.783 8.48563H63.8745L63.8135 19.3114H67.7466V3.7568H63.4171L54.1485 14.5826H54.057L54.118 3.7568ZM18.8727 15.3856L15.153 13.8093C13.9945 15.8614 12.1041 16.3075 9.81746 16.3075C6.03682 16.3075 4.11602 14.6718 4.11602 11.6084V11.4003C4.11602 8.33692 6.03682 6.70116 9.81746 6.70116C12.1041 6.70116 13.9945 7.11754 15.153 9.19941L18.8727 7.62314C17.1043 4.08395 13.5676 3.3999 9.81746 3.3999C3.78064 3.3999 0 6.43349 0 11.2218V11.8166C0 16.6347 3.78064 19.6385 9.81746 19.6385C13.5371 19.6385 17.1043 18.9247 18.8727 15.3856Z" fill="#5F00A5"/>
</g>
<defs>
<clipPath id="clip0_1226_559">
<rect width="154" height="22.2761" fill="white" transform="translate(0 0.187988)"/>
</clipPath>
</defs>
</svg>
